<?xml version="1.0" standalone="no"?>
<!DOCTYPE svg PUBLIC "-//W3C//DTD SVG 20010904//EN"
 "http://www.w3.org/TR/2001/REC-SVG-20010904/DTD/svg10.dtd">
<svg version="1.0" xmlns="http://www.w3.org/2000/svg"
 width="359.000000pt" height="359.000000pt" viewBox="0 0 359.000000 359.000000"
 preserveAspectRatio="xMidYMid meet">
<metadata>
Created by potrace 1.11, written by Peter Selinger 2001-2013
</metadata>
<g transform="translate(0.000000,359.000000) scale(0.100000,-0.100000)"
fill="#000000" stroke="none">
<path d="M1793 3564 c-3 -9 -35 -68 -69 -131 -35 -64 -64 -119 -64 -124 0 -5
-4 -9 -10 -9 -5 0 -9 -3 -8 -7 1 -5 -14 -37 -34 -73 -36 -65 -67 -123 -139
-257 -22 -39 -77 -143 -124 -229 -47 -87 -85 -161 -85 -165 0 -4 -3 -9 -7 -11
-5 -1 -21 -28 -36 -58 -51 -98 -130 -245 -137 -255 -4 -5 -33 -59 -65 -120
-32 -60 -61 -114 -65 -120 -4 -5 -28 -49 -54 -97 l-46 -87 88 -173 c49 -95
127 -247 172 -338 46 -91 87 -168 92 -171 6 -3 10 -10 9 -15 0 -8 66 -140 123
-249 9 -16 16 -35 16 -42 0 -6 4 -13 8 -15 5 -2 54 -93 109 -203 220 -435 308
-605 314 -605 3 0 11 10 17 22 7 13 34 63 62 113 27 50 60 110 73 135 13 25
47 87 76 139 28 52 51 97 51 102 0 4 3 9 8 11 4 2 29 46 56 98 27 52 57 109
67 125 10 17 33 59 52 95 19 36 58 110 87 165 29 55 56 102 59 105 3 3 17 28
31 55 42 83 105 200 110 205 3 3 18 30 33 60 16 30 43 82 60 115 17 33 33 62
36 65 4 3 23 37 44 77 l37 71 -97 194 c-54 106 -100 195 -103 198 -3 3 -11 19
-19 35 -7 17 -18 38 -23 48 -5 10 -37 73 -72 140 -35 67 -121 237 -192 377
-71 140 -131 257 -134 260 -3 3 -68 130 -145 282 -77 153 -144 278 -148 278
-4 0 -10 -7 -14 -16z"/>
</g>
</svg>
